<mxfile host="app.diagrams.net" modified="2020-10-25T17:42:21.107Z" agent="5.0 (Windows NT 10.0; Win64; x64) AppleWebKit/537.36 (KHTML, like Gecko) Chrome/86.0.4240.111 Safari/537.36" etag="1HVZxAWaZC088H6QijqT" version="13.8.2" type="github">
  <diagram id="z5BKTEy7kt-2o3ALmdR7" name="Page-1">
    <mxGraphModel dx="2452" dy="962" grid="1" gridSize="10" guides="1" tooltips="1" connect="1" arrows="1" fold="1" page="1" pageScale="1" pageWidth="827" pageHeight="1169" math="0" shadow="0">
      <root>
        <mxCell id="0" />
        <mxCell id="1" parent="0" />
        <mxCell id="NQ5Zk06NE-FvTYtAFist-1" value="Camera recognizes person" style="ellipse;whiteSpace=wrap;html=1;" vertex="1" parent="1">
          <mxGeometry x="340" y="40" width="120" height="80" as="geometry" />
        </mxCell>
        <mxCell id="NQ5Zk06NE-FvTYtAFist-18" value="more than one person?" style="ellipse;whiteSpace=wrap;html=1;" vertex="1" parent="1">
          <mxGeometry x="340" y="200" width="120" height="80" as="geometry" />
        </mxCell>
        <mxCell id="NQ5Zk06NE-FvTYtAFist-19" value="" style="endArrow=classic;html=1;entryX=0.5;entryY=0;entryDx=0;entryDy=0;exitX=0.5;exitY=1;exitDx=0;exitDy=0;" edge="1" parent="1" source="NQ5Zk06NE-FvTYtAFist-1" target="NQ5Zk06NE-FvTYtAFist-18">
          <mxGeometry width="50" height="50" relative="1" as="geometry">
            <mxPoint x="390" y="600" as="sourcePoint" />
            <mxPoint x="440" y="550" as="targetPoint" />
          </mxGeometry>
        </mxCell>
        <mxCell id="NQ5Zk06NE-FvTYtAFist-20" value="" style="endArrow=classic;html=1;exitX=0.5;exitY=1;exitDx=0;exitDy=0;entryX=0.5;entryY=0;entryDx=0;entryDy=0;" edge="1" parent="1" source="NQ5Zk06NE-FvTYtAFist-18" target="NQ5Zk06NE-FvTYtAFist-21">
          <mxGeometry width="50" height="50" relative="1" as="geometry">
            <mxPoint x="390" y="590" as="sourcePoint" />
            <mxPoint x="160" y="320" as="targetPoint" />
          </mxGeometry>
        </mxCell>
        <mxCell id="NQ5Zk06NE-FvTYtAFist-21" value="Person&#39;s status?" style="ellipse;whiteSpace=wrap;html=1;" vertex="1" parent="1">
          <mxGeometry x="140" y="321" width="120" height="80" as="geometry" />
        </mxCell>
        <mxCell id="NQ5Zk06NE-FvTYtAFist-22" value="no" style="text;html=1;strokeColor=none;fillColor=none;align=center;verticalAlign=middle;whiteSpace=wrap;rounded=0;" vertex="1" parent="1">
          <mxGeometry x="290" y="281" width="40" height="20" as="geometry" />
        </mxCell>
        <mxCell id="NQ5Zk06NE-FvTYtAFist-29" value="Notification" style="ellipse;whiteSpace=wrap;html=1;" vertex="1" parent="1">
          <mxGeometry x="215" y="481" width="120" height="80" as="geometry" />
        </mxCell>
        <mxCell id="NQ5Zk06NE-FvTYtAFist-31" value="optional Notification" style="ellipse;whiteSpace=wrap;html=1;" vertex="1" parent="1">
          <mxGeometry x="60" y="481" width="120" height="80" as="geometry" />
        </mxCell>
        <mxCell id="NQ5Zk06NE-FvTYtAFist-33" value="accepted" style="text;html=1;strokeColor=none;fillColor=none;align=center;verticalAlign=middle;whiteSpace=wrap;rounded=0;" vertex="1" parent="1">
          <mxGeometry x="100" y="421" width="40" height="20" as="geometry" />
        </mxCell>
        <mxCell id="NQ5Zk06NE-FvTYtAFist-39" style="edgeStyle=orthogonalEdgeStyle;rounded=0;orthogonalLoop=1;jettySize=auto;html=1;entryX=0.5;entryY=0;entryDx=0;entryDy=0;" edge="1" parent="1" source="NQ5Zk06NE-FvTYtAFist-34" target="NQ5Zk06NE-FvTYtAFist-29">
          <mxGeometry relative="1" as="geometry" />
        </mxCell>
        <mxCell id="NQ5Zk06NE-FvTYtAFist-34" value="not accepted&lt;br&gt;or unknown" style="text;html=1;strokeColor=none;fillColor=none;align=center;verticalAlign=middle;whiteSpace=wrap;rounded=0;" vertex="1" parent="1">
          <mxGeometry x="230" y="421" width="90" height="30" as="geometry" />
        </mxCell>
        <mxCell id="NQ5Zk06NE-FvTYtAFist-42" value="" style="endArrow=none;html=1;exitX=0.5;exitY=1;exitDx=0;exitDy=0;entryX=1;entryY=0;entryDx=0;entryDy=0;" edge="1" parent="1" source="NQ5Zk06NE-FvTYtAFist-21" target="NQ5Zk06NE-FvTYtAFist-33">
          <mxGeometry width="50" height="50" relative="1" as="geometry">
            <mxPoint x="290" y="511" as="sourcePoint" />
            <mxPoint x="340" y="461" as="targetPoint" />
          </mxGeometry>
        </mxCell>
        <mxCell id="NQ5Zk06NE-FvTYtAFist-43" value="" style="endArrow=none;html=1;entryX=0.5;entryY=1;entryDx=0;entryDy=0;exitX=0.5;exitY=0;exitDx=0;exitDy=0;" edge="1" parent="1" source="NQ5Zk06NE-FvTYtAFist-34" target="NQ5Zk06NE-FvTYtAFist-21">
          <mxGeometry width="50" height="50" relative="1" as="geometry">
            <mxPoint x="290" y="511" as="sourcePoint" />
            <mxPoint x="340" y="461" as="targetPoint" />
          </mxGeometry>
        </mxCell>
        <mxCell id="NQ5Zk06NE-FvTYtAFist-45" value="" style="endArrow=classic;html=1;exitX=0.5;exitY=1;exitDx=0;exitDy=0;entryX=0.5;entryY=0;entryDx=0;entryDy=0;" edge="1" parent="1" source="NQ5Zk06NE-FvTYtAFist-33" target="NQ5Zk06NE-FvTYtAFist-31">
          <mxGeometry width="50" height="50" relative="1" as="geometry">
            <mxPoint x="290" y="511" as="sourcePoint" />
            <mxPoint x="340" y="461" as="targetPoint" />
          </mxGeometry>
        </mxCell>
        <mxCell id="NQ5Zk06NE-FvTYtAFist-48" value="Peoples&#39; status" style="ellipse;whiteSpace=wrap;html=1;" vertex="1" parent="1">
          <mxGeometry x="554" y="320" width="120" height="80" as="geometry" />
        </mxCell>
        <mxCell id="NQ5Zk06NE-FvTYtAFist-49" value="" style="endArrow=classic;html=1;entryX=0.5;entryY=0;entryDx=0;entryDy=0;" edge="1" parent="1" target="NQ5Zk06NE-FvTYtAFist-48">
          <mxGeometry width="50" height="50" relative="1" as="geometry">
            <mxPoint x="400" y="280" as="sourcePoint" />
            <mxPoint x="730" y="360" as="targetPoint" />
          </mxGeometry>
        </mxCell>
        <mxCell id="NQ5Zk06NE-FvTYtAFist-50" value="yes" style="text;html=1;strokeColor=none;fillColor=none;align=center;verticalAlign=middle;whiteSpace=wrap;rounded=0;" vertex="1" parent="1">
          <mxGeometry x="504" y="280" width="40" height="20" as="geometry" />
        </mxCell>
        <mxCell id="NQ5Zk06NE-FvTYtAFist-51" value="optional Notification" style="ellipse;whiteSpace=wrap;html=1;direction=west;" vertex="1" parent="1">
          <mxGeometry x="694" y="480" width="120" height="80" as="geometry" />
        </mxCell>
        <mxCell id="NQ5Zk06NE-FvTYtAFist-52" value="Notification" style="ellipse;whiteSpace=wrap;html=1;" vertex="1" parent="1">
          <mxGeometry x="554" y="481" width="120" height="80" as="geometry" />
        </mxCell>
        <mxCell id="NQ5Zk06NE-FvTYtAFist-53" value="optional Notification" style="ellipse;whiteSpace=wrap;html=1;" vertex="1" parent="1">
          <mxGeometry x="414" y="480" width="120" height="80" as="geometry" />
        </mxCell>
        <mxCell id="NQ5Zk06NE-FvTYtAFist-54" value="one or more accepted" style="text;html=1;strokeColor=none;fillColor=none;align=center;verticalAlign=middle;whiteSpace=wrap;rounded=0;" vertex="1" parent="1">
          <mxGeometry x="684" y="420" width="60" height="30" as="geometry" />
        </mxCell>
        <mxCell id="NQ5Zk06NE-FvTYtAFist-55" value="all accepted" style="text;html=1;strokeColor=none;fillColor=none;align=center;verticalAlign=middle;whiteSpace=wrap;rounded=0;" vertex="1" parent="1">
          <mxGeometry x="494" y="420" width="50" height="30" as="geometry" />
        </mxCell>
        <mxCell id="NQ5Zk06NE-FvTYtAFist-56" style="edgeStyle=orthogonalEdgeStyle;rounded=0;orthogonalLoop=1;jettySize=auto;html=1;entryX=0.5;entryY=0;entryDx=0;entryDy=0;" edge="1" parent="1" source="NQ5Zk06NE-FvTYtAFist-57" target="NQ5Zk06NE-FvTYtAFist-52">
          <mxGeometry relative="1" as="geometry" />
        </mxCell>
        <mxCell id="NQ5Zk06NE-FvTYtAFist-57" value="nobody accepted" style="text;html=1;strokeColor=none;fillColor=none;align=center;verticalAlign=middle;whiteSpace=wrap;rounded=0;" vertex="1" parent="1">
          <mxGeometry x="571.5" y="420" width="85" height="30" as="geometry" />
        </mxCell>
        <mxCell id="NQ5Zk06NE-FvTYtAFist-58" value="" style="endArrow=none;html=1;exitX=0.5;exitY=1;exitDx=0;exitDy=0;entryX=1;entryY=0;entryDx=0;entryDy=0;" edge="1" parent="1" target="NQ5Zk06NE-FvTYtAFist-55">
          <mxGeometry width="50" height="50" relative="1" as="geometry">
            <mxPoint x="613.9999999999995" y="400" as="sourcePoint" />
            <mxPoint x="754" y="460" as="targetPoint" />
          </mxGeometry>
        </mxCell>
        <mxCell id="NQ5Zk06NE-FvTYtAFist-59" value="" style="endArrow=none;html=1;entryX=0.5;entryY=1;entryDx=0;entryDy=0;exitX=0.5;exitY=0;exitDx=0;exitDy=0;" edge="1" parent="1" source="NQ5Zk06NE-FvTYtAFist-57">
          <mxGeometry width="50" height="50" relative="1" as="geometry">
            <mxPoint x="704" y="510" as="sourcePoint" />
            <mxPoint x="613.9999999999995" y="400" as="targetPoint" />
          </mxGeometry>
        </mxCell>
        <mxCell id="NQ5Zk06NE-FvTYtAFist-60" value="" style="endArrow=classic;html=1;exitX=0;exitY=1;exitDx=0;exitDy=0;entryX=0.5;entryY=0;entryDx=0;entryDy=0;" edge="1" parent="1" source="NQ5Zk06NE-FvTYtAFist-55" target="NQ5Zk06NE-FvTYtAFist-53">
          <mxGeometry width="50" height="50" relative="1" as="geometry">
            <mxPoint x="704" y="510" as="sourcePoint" />
            <mxPoint x="754" y="460" as="targetPoint" />
          </mxGeometry>
        </mxCell>
        <mxCell id="NQ5Zk06NE-FvTYtAFist-61" value="" style="endArrow=none;html=1;exitX=0;exitY=0;exitDx=0;exitDy=0;" edge="1" parent="1" source="NQ5Zk06NE-FvTYtAFist-54">
          <mxGeometry width="50" height="50" relative="1" as="geometry">
            <mxPoint x="704" y="510" as="sourcePoint" />
            <mxPoint x="614.0000000000005" y="400" as="targetPoint" />
          </mxGeometry>
        </mxCell>
        <mxCell id="NQ5Zk06NE-FvTYtAFist-62" value="" style="endArrow=classic;html=1;entryX=0.5;entryY=1;entryDx=0;entryDy=0;" edge="1" parent="1" target="NQ5Zk06NE-FvTYtAFist-51">
          <mxGeometry width="50" height="50" relative="1" as="geometry">
            <mxPoint x="744" y="450" as="sourcePoint" />
            <mxPoint x="754" y="460" as="targetPoint" />
          </mxGeometry>
        </mxCell>
      </root>
    </mxGraphModel>
  </diagram>
</mxfile>
